<svg height="512" viewBox="0 0 58 56" width="512" xmlns="http://www.w3.org/2000/svg"><g id="Page-1" fill="none" fill-rule="evenodd"><g id="054---Coffee" fill-rule="nonzero"><path id="Shape" d="m38 45.81c-.5522847 0-1-.4477153-1-1 .0008962-.1147384.0204863-.2285637.058-.337l.007-.02c.963-2.783 3.535-7.453 9.905-7.453 6.843 0 8.259-6.6 8.473-7.92.0898247-.5145502-.0534084-1.0424246-.391-1.441-.3401013-.4057159-.8425911-.6397473-1.372-.639h-7.59c-.5522847 0-1-.4477153-1-1s.4477153-1 1-1h7.59c1.1137329-.0012186 2.1714447.4882657 2.8913531 1.3380505s1.0288963 1.9735623.8446469 3.0719495c-.158.973-1.8 9.59-10.446 9.59-4.876 0-7.049 3.318-8.014 6.1-.127659.4212874-.5157958.709548-.956.71z" fill="#95a5a5"/><path id="Shape" d="m18.33 39.76-5.43-7.86c-1.8330361-2.7677976-2.8390171-6.0008124-2.9-9.32v-.58l18-2 20 2v.58c-.030458 3.5100252-1.1950525 6.9161133-3.32 9.71-1.92 2.55-4.18 6.85-5.37 13.71l-8.31 3z" fill="#e64c3c"/><path id="Shape" d="m51 47.95v.11c.0013551.594331-.267175 1.1571406-.73 1.53l-3.73 2.98c-.3459738.2778297-.7762806.4294952-1.22.43h-17.91c.28-.24.55-.49.82-.76 1.7571714-1.6965849 2.9894615-3.8626384 3.55-6.24h17.27c.5174979-.0010648 1.0141069.2040391 1.3800339.5699661s.5710309.862536.5699661 1.3800339z" fill="#c03a2b"/><path id="Shape" d="m31.78 46c-.5605385 2.3773616-1.7928286 4.5434151-3.55 6.24-.27.27-.54.52-.82.76-4.07 3.48-9.43 4.02-12.35 1.12-.065429-.0615728-.1256356-.128469-.18-.2-.0195386-.0174207-.0363883-.0376402-.05-.06-.2258665-.2451383-.4299699-.509469-.61-.79 2.47-2.34 4.33-.56 6.8-3.02 2.51-2.5.63-4.38 3.14-6.88 2.46-2.46 4.33-.68 6.79-3.02h.01c.1816295.291422.3420441.5955414.48.91.6191712 1.5724028.7379092 3.2975957.34 4.94z" fill="#805333"/><path id="Shape" d="m30.96 40.15h-.01c-2.46 2.34-4.33.56-6.79 3.02-2.51 2.5-.63 4.38-3.14 6.88-2.47 2.46-4.33.68-6.8 3.02-.1816684-.2948653-.3420753-.6023119-.48-.92-1.38-3.25-.2-7.79 3.21-11.17.4309002-.4353612.8920506-.8397031 1.38-1.21v-.01c3.99-3.06 8.99-3.43 11.79-.66.0845914.0793196.1615923.166364.23.26.2235261.2471046.4274756.5112359.61.79z" fill="#a56a43"/><path id="Shape" d="m18.33 39.76v.01c-.4879494.3702969-.9490998.7746388-1.38 1.21-3.74 3.71-4.8 8.82-2.73 12.09.1935553.3029121.4144803.5874367.66.85-.8808827.700018-1.8707119 1.2506738-2.93 1.63-.3246589.1085493-.6551842.1986926-.99.27-.1-4-3.14-4.06-3.14-8.15 0-4.17 3.14-4.17 3.14-8.34 0-4.09-3.04-4.15-3.14-8.15.32661372-.0702436.65723754-.1203381.99-.15.19268886-.0199665.38627943-.0299798.58-.03 1.22657.0039786 2.4328505.3132813 3.51.9 2.8425316 1.7316311 4.8162605 4.5886308 5.43 7.86z" fill="#cb8252"/><path id="Shape" d="m7.82 47.67c0 4.09 3.04 4.15 3.14 8.15-.3267482.0695068-.6573273.1195945-.99.15-5.46.43-9.98-5.32-9.97-12.47-.01-5.71 2.89-10.54 6.83-12.02.32013946-.1300417.65152609-.2304619.99-.3.1 4 3.14 4.06 3.14 8.15 0 4.17-3.14 4.17-3.14 8.34z" fill="#cf976a"/><g fill="#805333"><path id="Shape" d="m22 13c-.5522847 0-1-.4477153-1-1 .0185694-1.0159952.5077024-1.9658147 1.324-2.571.481-.441.676-.638.676-1.1s-.2-.656-.676-1.1c-.8151602-.60391664-1.3041945-1.55169771-1.324-2.566.018509-1.01569299.5081586-1.96505881 1.325-2.569.48-.441.675-.637.675-1.094 0-.55228475.4477153-1 1-1s1 .44771525 1 1c-.0188858 1.01508697-.5080508 1.96386006-1.324 2.568-.481.441-.676.637-.676 1.1s.2.656.676 1.1c.8140982.60347875 1.3029697 1.54983656 1.324 2.563-.0196402 1.01517252-.5086105 1.9639373-1.324 2.569-.476.444-.676.641-.676 1.1 0 .5522847-.4477153 1-1 1z"/><path id="Shape" d="m28 13c-.5522847 0-1-.4477153-1-1 .0185694-1.0159952.5077024-1.9658147 1.324-2.571.481-.441.676-.638.676-1.1s-.2-.656-.676-1.1c-.8151602-.60391664-1.3041945-1.55169771-1.324-2.566.018509-1.01569299.5081586-1.96505881 1.325-2.569.48-.441.675-.637.675-1.094 0-.55228475.4477153-1 1-1s1 .44771525 1 1c-.0188858 1.01508697-.5080508 1.96386006-1.324 2.568-.481.441-.676.637-.676 1.1s.2.656.676 1.1c.8140982.60347875 1.3029697 1.54983656 1.324 2.563-.0196402 1.01517252-.5086105 1.9639373-1.324 2.569-.476.444-.676.641-.676 1.1 0 .5522847-.4477153 1-1 1z"/><path id="Shape" d="m34 13c-.5522847 0-1-.4477153-1-1 .0185694-1.0159952.5077024-1.9658147 1.324-2.571.481-.441.676-.638.676-1.1s-.2-.656-.676-1.1c-.8151602-.60391664-1.3041945-1.55169771-1.324-2.566.018509-1.01569299.5081586-1.96505881 1.325-2.569.48-.441.675-.637.675-1.094 0-.55228475.4477153-1 1-1s1 .44771525 1 1c-.0188858 1.01508697-.5080508 1.96386006-1.324 2.568-.481.441-.676.637-.676 1.1s.2.656.676 1.1c.8140982.60347875 1.3029697 1.54983656 1.324 2.563-.0196402 1.01517252-.5086105 1.9639373-1.324 2.569-.476.444-.676.641-.676 1.1 0 .5522847-.4477153 1-1 1z"/><path id="Shape" d="m10.18 51.22c1.0618388 1.2021668 1.6856661 2.7282527 1.77 4.33-.3246589.1085493-.6551842.1986926-.99.27-.3267482.0695068-.6573273.1195945-.99.15-.00828475-.0394323-.01164376-.0797403-.01-.12-.02767314-1.2712197-.51428121-2.4895158-1.37-3.43-2.36019341-2.7344799-2.36019341-6.7855201 0-9.52.89472883-.972053 1.38473725-2.2489362 1.37-3.57.01967568-1.314128-.46734147-2.585386-1.36-3.55-1.05434921-1.1950116-1.67756465-2.7090378-1.77-4.3.32013946-.1300417.65152609-.2304619.99-.3.32661372-.0702436.65723754-.1203381.99-.15.00828475.0394323.01164376.0797403.01.12.02767314 1.2712197.51428121 2.4895158 1.37 3.43 2.3601934 2.7344799 2.3601934 6.7855201 0 9.52-.89472883.972053-1.38473725 2.2489362-1.37 3.57-.01967568 1.314128.46734147 2.585386 1.36 3.55z"/></g><path id="Shape" d="m31.44 41.06c-1.0302926.9064592-2.3308168 1.4477585-3.7 1.54-2.2403432.1239468-4.0306617 1.9099616-4.16 4.15-.2441165 3.1317553-2.7374298 5.6165735-5.87 5.85-1.0482686.0459185-2.0438049.4725769-2.8 1.2-.03.02-.05.04-.08.06-.2258665-.2451383-.4299699-.509469-.61-.79-.1816684-.2948653-.3420753-.6023119-.48-.92 1.031467-.8967728 2.3265973-1.433778 3.69-1.53 1.0879571-.0444148 2.1179889-.5022067 2.88-1.28.7836616-.7547666 1.2457728-1.7828744 1.29-2.87.2442863-3.1278827 2.7317046-5.6110563 5.86-5.85 1.046611-.0446501 2.041487-.4674723 2.8-1.19.0274939-.0263883.0576559-.0498476.09-.07.2235261.2471046.4274756.5112359.61.79.1816295.291422.3420441.5955414.48.91z" fill="#603e26"/><path id="Shape" d="m48 18v4h-38v-4c.0032948-1.1032019.8967981-1.9967052 2-2h34c1.1032019.0032948 1.9967052.8967981 2 2z" fill="#f9eab0"/></g></g></svg>